<?xml version="1.0" encoding="UTF-8" standalone="no"?>
<svg version="1.1" width="200" height="200" viewBox="0 0 200 200" xmlns="http://www.w3.org/2000/svg">
  <g transform="translate(26.25,11.0)">
    <path fill="#FFFFFF" d="m 48.09505,167.35559 c -1.562174,-0.62898 -3.915189,-5.81597 -3.928299,-8.65954 -0.0079,-1.70343 1.242816,-5.61132 2.27335,-7.10338 0.392281,-0.56797 1.957418,-2.40067 3.478081,-4.07267 1.520663,-1.672 3.091521,-3.72299 3.490796,-4.55777 1.334425,-2.78991 3.655422,-3.76223 8.980707,-3.76223 3.931461,0 2.314403,0.76557 13.770317,-6.51931 7.705918,-4.90024 8.805221,-5.35796 15.036056,-6.26068 l 3.996055,-0.57895 1.4745,-1.64627 c 1.701648,-1.89987 4.060807,-6.28167 6.221107,-11.55479 1.99758,-4.87594 3.95468,-8.73744 6.42466,-12.676333 l 2.02942,-3.236332 -1.1275,-4.123668 c -0.62013,-2.268017 -1.30004,-4.283343 -1.5109,-4.478503 -0.21087,-0.19516 -2.48406,-2.087022 -5.05154,-4.204136 C 93.000381,75.13793 88.207131,69.778486 84.98487,63.049028 83.627187,60.213606 83.572726,59.605778 84.640002,59.2 c 0.44,-0.167288 0.8,-0.451724 0.8,-0.63208 0,-0.180356 -0.04976,-0.32792 -0.110587,-0.32792 -1.036366,0 -8.792635,-1.698863 -9.313036,-2.039844 -1.725324,-1.130475 -5.419512,-5.572849 -11.968037,-14.39193 -2.389546,-3.218068 -3.438325,-4.393067 -3.829556,-4.290436 -0.553756,0.145266 -28.082815,21.161147 -29.473743,22.500466 -0.772606,0.74394 -0.773857,0.75621 -0.41227,4.043974 0.219943,1.999848 0.806005,4.683157 1.48907,6.81777 l 1.126383,3.52 0.0059,6.600818 c 0.0076,8.552078 -0.137397,8.73292 -3.303353,4.119182 -0.664243,-0.968 -1.989239,-2.84 -2.944435,-4.16 -0.955197,-1.32 -2.239572,-3.12 -2.854167,-4 -0.614596,-0.88 -1.387614,-1.96 -1.717818,-2.4 -0.330205,-0.44 -1.14945,-1.628 -1.820546,-2.64 -0.671095,-1.012 -1.408758,-1.84 -1.63925,-1.84 -0.230492,0 -0.878432,0.279351 -1.439868,0.620781 -0.894591,0.544033 -1.123026,0.56767 -1.847734,0.191189 -1.627762,-0.84561 -3.165754,-3.576091 -3.455629,-6.134966 -0.137357,-1.212526 -0.05391,-1.399564 0.999398,-2.24 0.632098,-0.504352 1.149274,-1.084846 1.149279,-1.289987 C 14.079996,61.021877 12.604,59.30678 10.8,57.41569 7.3885725,53.839574 6.4734109,53.243546 2.4998192,52.009937 1.4987196,51.699143 0.60091153,51.2397 0.50469007,50.988951 0.27809668,50.398458 1.9474426,47.400847 3.862166,44.96 9.2275874,38.120278 18.246988,32.846329 27.10022,31.371924 c 4.306863,-0.71726 13.633443,-0.311505 15.187231,0.660724 0.318325,0.199181 -0.981424,1.688297 -4.921903,5.639003 L 32.011095,43.04 31.520114,45.861766 C 31.046868,48.581611 31.07913,49.28 31.678023,49.28 c 0.154138,0 4.71764,-3.710373 10.141115,-8.245273 5.423475,-4.5349 10.252338,-8.5309 10.730808,-8.88 0.991362,-0.723316 1.118394,-1.606324 0.382282,-2.657272 -0.635923,-0.907907 -0.452922,-1.149723 2.386693,-3.153755 1.166595,-0.823312 2.605078,-1.913101 3.19663,-2.421752 1.715163,-1.474798 2.399061,-1.611298 5.082187,-1.014359 1.710488,0.380548 2.578287,0.438489 3.08813,0.206189 0.390012,-0.177702 4.889683,-3.002998 9.999269,-6.278436 L 85.975293,10.88 h 3.401096 c 3.196124,0 3.425017,0.04339 3.798015,0.72 0.218305,0.396 0.400972,1.562666 0.405925,2.592592 0.0075,1.551728 -0.112063,1.970628 -0.697573,2.444745 C 91.955375,17.388284 80.467797,24 80.090438,24 c -0.160229,0 -1.218125,0.619099 -2.350881,1.375775 -1.132755,0.756677 -2.870682,1.837591 -3.862059,2.402032 -2.310592,1.315537 -2.670118,1.73909 -2.208443,2.601738 0.194405,0.36325 0.499239,0.660455 0.677407,0.660455 0.178168,0 1.796871,0.694778 3.597117,1.543951 2.438364,1.150173 3.818953,2.0545 5.413091,3.545738 l 2.139915,2.001785 2.632634,-0.665737 c 3.148676,-0.796233 4.323685,-0.825266 6.843552,-0.169097 2.86021,0.744795 4.463473,1.839081 7.987229,5.451583 l 3.2,3.28059 3.48948,0.997962 c 5.92327,1.69401 11.65294,4.261535 15.65562,7.015448 2.48556,1.710111 5.18669,4.984782 6.96107,8.439144 0.90918,1.769973 2.4095,4.383745 3.33405,5.808383 3.99154,6.150561 5.8786,11.342396 7.62925,20.99025 0.48152,2.65362 1.27716,5.616073 2.06267,7.68 2.92797,7.69328 3.71505,11.7237 3.7182,19.04 0.002,4.34636 -0.14094,6.16032 -0.71042,9.02305 -1.09941,5.52673 -4.02032,13.44583 -6.27929,17.02428 -0.66981,1.06104 -1.12021,1.38188 -2.50507,1.78447 -4.97779,1.44709 -5.77247,1.51741 -19.91556,1.76254 -11.62182,0.20143 -14.40642,0.34251 -17.919997,0.90787 -2.288,0.36816 -6.32,0.82549 -8.96,1.01629 -7.280556,0.52618 -10.947433,1.1668 -17.486725,3.05499 -6.464552,1.86662 -10.595016,3.50688 -13.449105,5.34084 -1.711158,1.09954 -1.921245,1.38277 -3.64458,4.91354 -2.325416,4.76432 -4.192717,6.86227 -6.080763,6.83185 -0.692356,-0.0112 -1.576057,-0.14801 -1.96378,-0.30413 z M 112.32,46.877812 c -6.97669,-2.129678 -7.22634,-2.247109 -8.38863,-3.945748 -2.60611,-3.808742 -5.929223,-6.486692 -8.818315,-7.106292 -0.917012,-0.196663 -1.758254,-0.504746 -1.869427,-0.684628 -0.27667,-0.447662 4.229347,-4.960734 5.729659,-5.73863 0.667306,-0.345991 2.107303,-0.706475 3.200003,-0.801075 3.64831,-0.315854 6.97687,1.398011 10.7837,5.552494 2.05291,2.240389 6.62077,8.072449 6.87973,8.78377 0.0846,0.232263 -0.17873,1.502297 -0.58508,2.822297 -0.63904,2.075869 -0.84368,2.409062 -1.51523,2.467101 -0.42702,0.03691 -2.86441,-0.570274 -5.41641,-1.349289 z" />
  </g>
</svg>
